<svg width="401.22499999999997px" height="121.40498046875px" xmlns="http://www.w3.org/2000/svg" viewBox="49.38750000000002 14.297509765625001 401.22499999999997 121.40498046875" style="background: rgba(0, 0, 0, 0);" preserveAspectRatio="xMidYMid"><defs><linearGradient id="editing-sticker-gradient" x1="0.5" y1="0.2" x2="0.5" y2="0.8"><stop offset="0" stop-color="#fd9"></stop><stop offset="1" stop-color="#9df"></stop></linearGradient><filter id="editing-sticker" x="-100%" y="-100%" width="300%" height="300%"><feMorphology operator="erode" radius="1" in="SourceAlpha" result="alpha-erode"></feMorphology><feConvolveMatrix order="3,3" divisor="1" kernelMatrix="0 1 0 1 1 1 0 1 0" in="alpha-erode" result="alpha-round"></feConvolveMatrix><feMorphology operator="dilate" radius="3.5" in="alpha-round" result="dilate-shadow"></feMorphology><feGaussianBlur in="dilate-shadow" stdDeviation="1.5" result="shadow"></feGaussianBlur><feFlood flood-color="#fff" result="flood-sticker"></feFlood><feComposite operator="in" in="flood-sticker" in2="alpha-round" result="comp-sticker"></feComposite><feMorphology operator="dilate" radius="3" in="comp-sticker" result="morph-sticker"></feMorphology><feConvolveMatrix order="3,3" divisor="1" kernelMatrix="0 1 0 1 1 1 0 1 0" in="morph-sticker" result="sticker"></feConvolveMatrix><feMerge><feMergeNode in="shadow"></feMergeNode><feMergeNode in="sticker"></feMergeNode><feMergeNode in="SourceGraphic"></feMergeNode></feMerge></filter></defs><g filter="url(#editing-sticker)"><g transform="translate(108.52812051773071, 98.68000030517578)"><path d="M6.21-31.17L6.21-31.17L6.21-31.17Q4.03-32.83 4.03-36.38L4.03-36.38L4.03-36.38Q4.03-39.94 6.37-41.79L6.37-41.79L6.37-41.79Q8.70-43.65 12.74-43.65L12.74-43.65L12.74-43.65Q15.30-43.65 21.38-42.75L21.38-42.75L25.73-42.11L25.73-42.11Q27.90-41.86 30.18-41.86L30.18-41.86L30.18-41.86Q32.45-41.86 33.98-42.82L33.98-42.82L33.98-42.82Q36.29-40.77 36.29-37.82L36.29-37.82L36.29-37.82Q36.29-34.88 33.66-32.77L33.66-32.77L33.66-32.77Q30.98-30.53 27.52-30.53L27.52-30.53L27.52-30.53Q25.86-30.53 23.17-30.98L23.17-30.98L23.17-30.98Q20.03-21.12 20.03-14.27L20.03-14.27L20.03-14.27Q20.03-7.42 23.49-3.84L23.49-3.84L23.49-3.84Q21.89-0.96 19.52 0.16L19.52 0.16L19.52 0.16Q17.15 1.28 13.60 1.28L13.60 1.28L13.60 1.28Q10.05 1.28 7.84-0.67L7.84-0.67L7.84-0.67Q5.63-2.62 5.63-6.66L5.63-6.66L5.63-6.66Q5.63-11.33 8.19-19.01L8.19-19.01L8.19-19.01Q10.75-26.62 14.59-32.45L14.59-32.45L14.59-32.45Q12.74-32.64 10.82-32.64L10.82-32.64L10.82-32.64Q6.85-32.64 6.21-31.17ZM57.22-10.82L57.22-10.82L57.22-10.82Q58.82-9.73 58.82-7.33L58.82-7.33L58.82-7.33Q58.82-4.93 57.60-3.39L57.60-3.39L57.60-3.39Q56.38-1.86 54.40-0.83L54.40-0.83L54.40-0.83Q50.30 1.28 45.89 1.28L45.89 1.28L45.89 1.28Q41.47 1.28 38.88 0.32L38.88 0.32L38.88 0.32Q36.29-0.64 34.56-2.43L34.56-2.43L34.56-2.43Q31.17-5.82 31.17-12.03L31.17-12.03L31.17-12.03Q31.17-21.70 36.42-27.58L36.42-27.58L36.42-27.58Q42.05-33.92 51.84-33.92L51.84-33.92L51.84-33.92Q57.92-33.92 60.93-31.36L60.93-31.36L60.93-31.36Q63.17-29.44 63.17-26.30L63.17-26.30L63.17-26.30Q63.17-15.04 43.71-15.04L43.71-15.04L43.71-15.04Q43.46-13.38 43.46-11.97L43.46-11.97L43.46-11.97Q43.46-9.02 44.77-7.90L44.77-7.90L44.77-7.90Q46.08-6.78 48.51-6.78L48.51-6.78L48.51-6.78Q50.94-6.78 53.54-7.90L53.54-7.90L53.54-7.90Q56.13-9.02 57.22-10.82ZM44.16-17.79L44.16-17.79L44.16-17.79Q48.70-17.79 51.33-20.61L51.33-20.61L51.33-20.61Q53.95-23.30 53.95-27.58L53.95-27.58L53.95-27.58Q53.95-29.06 53.41-29.86L53.41-29.86L53.41-29.86Q52.86-30.66 51.78-30.66L51.78-30.66L51.78-30.66Q50.69-30.66 49.76-30.24L49.76-30.24L49.76-30.24Q48.83-29.82 47.87-28.42L47.87-28.42L47.87-28.42Q45.50-25.22 44.16-17.79ZM96.77-26.62L96.77-26.62L96.77-26.62Q96.77-23.94 94.53-22.27L94.53-22.27L94.53-22.27Q92.29-20.61 88.64-20.61L88.64-20.61L88.64-20.61Q87.10-20.61 86.21-21.06L86.21-21.06L86.21-21.06Q86.91-22.72 87.14-24.80L87.14-24.80L87.14-24.80Q87.36-26.88 87.36-27.46L87.36-27.46L87.36-27.46Q87.36-30.14 85.50-30.14L85.50-30.14L85.50-30.14Q84.22-30.14 82.78-28.54L82.78-28.54L82.78-28.54Q81.34-26.94 80.13-24.45L80.13-24.45L80.13-24.45Q77.44-18.69 77.44-12.86L77.44-12.86L77.44-12.86Q77.44-9.66 78.66-8.22L78.66-8.22L78.66-8.22Q79.87-6.78 82.56-6.78L82.56-6.78L82.56-6.78Q86.27-6.78 89.22-9.86L89.22-9.86L89.22-9.86Q90.05-10.82 90.50-11.90L90.50-11.90L90.50-11.90Q92.93-10.62 92.93-7.10L92.93-7.10L92.93-7.10Q92.93-3.52 88.96-1.15L88.96-1.15L88.96-1.15Q84.86 1.28 78.34 1.28L78.34 1.28L78.34 1.28Q65.34 1.28 65.34-12.48L65.34-12.48L65.34-12.48Q65.34-22.53 71.04-28.29L71.04-28.29L71.04-28.29Q76.54-33.92 86.66-33.92L86.66-33.92L86.66-33.92Q96.77-33.92 96.77-26.62ZM130.69-7.10L130.69-7.10L130.69-7.10Q130.69-4.29 133.57-3.46L133.57-3.46L133.57-3.46Q132.86-1.09 130.11 0.19L130.11 0.19L130.11 0.19Q127.81 1.28 125.28 1.28L125.28 1.28L125.28 1.28Q122.75 1.28 121.44 0.61L121.44 0.61L121.44 0.61Q120.13-0.06 119.42-1.15L119.42-1.15L119.42-1.15Q118.27-2.82 118.27-5.95L118.27-5.95L118.27-5.95Q118.27-7.81 119.30-12.93L119.30-12.93L120.19-17.79L120.19-17.79Q121.28-23.36 121.28-25.41L121.28-25.41L121.28-25.41Q121.28-28.99 119.30-28.99L119.30-28.99L119.30-28.99Q116.80-28.99 115.20-25.34L115.20-25.34L115.20-25.34Q114.56-23.94 114.11-21.82L114.11-21.82L109.76 0L96.90 1.28L105.92-44.80L118.78-46.08L118.27-43.52L118.27-43.52Q116.48-33.66 114.94-30.34L114.94-30.34L114.94-30.34Q118.53-33.92 125.12-33.92L125.12-33.92L125.12-33.92Q132.10-33.92 133.38-29.31L133.38-29.31L133.38-29.31Q133.82-27.84 133.82-26.56L133.82-26.56L133.82-26.56Q133.82-25.28 133.73-24.29L133.73-24.29L133.73-24.29Q133.63-23.30 133.31-21.50L133.31-21.50L132.48-16.90L131.01-9.66L131.01-9.66Q130.69-8.19 130.69-7.10ZM180.29-26.56L180.29-26.56L180.29-26.56Q180.29 0.70 150.72 0.70L150.72 0.70L150.72 0.70Q145.98 0.70 138.18-0.45L138.18-0.45L145.34-38.27L145.34-38.27Q145.86-40.83 146.18-42.30L146.18-42.30L146.18-42.30Q155.90-43.01 160.22-43.01L160.22-43.01L160.22-43.01Q164.54-43.01 168.51-42.11L168.51-42.11L168.51-42.11Q172.48-41.22 175.10-39.23L175.10-39.23L175.10-39.23Q180.29-35.33 180.29-26.56ZM167.10-28.93L167.10-28.93L167.10-28.93Q167.10-38.46 160.26-38.46L160.26-38.46L159.62-38.46L159.62-38.46Q159.30-38.46 158.98-38.40L158.98-38.40L152.38-4.03L152.38-4.03Q152.64-3.90 152.90-3.90L152.90-3.90L153.41-3.90L153.41-3.90Q155.78-3.90 158.24-5.38L158.24-5.38L158.24-5.38Q160.70-6.85 162.62-9.86L162.62-9.86L162.62-9.86Q167.10-16.83 167.10-28.93ZM209.47-10.82L209.47-10.82L209.47-10.82Q211.07-9.73 211.07-7.33L211.07-7.33L211.07-7.33Q211.07-4.93 209.86-3.39L209.86-3.39L209.86-3.39Q208.64-1.86 206.66-0.83L206.66-0.83L206.66-0.83Q202.56 1.28 198.14 1.28L198.14 1.28L198.14 1.28Q193.73 1.28 191.14 0.32L191.14 0.32L191.14 0.32Q188.54-0.64 186.82-2.43L186.82-2.43L186.82-2.43Q183.42-5.82 183.42-12.03L183.42-12.03L183.42-12.03Q183.42-21.70 188.67-27.58L188.67-27.58L188.67-27.58Q194.30-33.92 204.10-33.92L204.10-33.92L204.10-33.92Q210.18-33.92 213.18-31.36L213.18-31.36L213.18-31.36Q215.42-29.44 215.42-26.30L215.42-26.30L215.42-26.30Q215.42-15.04 195.97-15.04L195.97-15.04L195.97-15.04Q195.71-13.38 195.71-11.97L195.71-11.97L195.71-11.97Q195.71-9.02 197.02-7.90L197.02-7.90L197.02-7.90Q198.34-6.78 200.77-6.78L200.77-6.78L200.77-6.78Q203.20-6.78 205.79-7.90L205.79-7.90L205.79-7.90Q208.38-9.02 209.47-10.82ZM196.42-17.79L196.42-17.79L196.42-17.79Q200.96-17.79 203.58-20.61L203.58-20.61L203.58-20.61Q206.21-23.30 206.21-27.58L206.21-27.58L206.21-27.58Q206.21-29.06 205.66-29.86L205.66-29.86L205.66-29.86Q205.12-30.66 204.03-30.66L204.03-30.66L204.03-30.66Q202.94-30.66 202.02-30.24L202.02-30.24L202.02-30.24Q201.09-29.82 200.13-28.42L200.13-28.42L200.13-28.42Q197.76-25.22 196.42-17.79ZM216.77-3.07L216.77-3.07L224.70-44.80L237.70-46.08L235.71-36.29L235.71-36.29Q235.01-33.28 234.11-31.17L234.11-31.17L234.11-31.17Q235.52-32.96 238.59-33.66L238.59-33.66L238.59-33.66Q239.49-33.92 240.58-33.92L240.58-33.92L240.58-33.92Q246.53-33.92 249.79-30.30L249.79-30.30L249.79-30.30Q253.06-26.69 253.06-19.71L253.06-19.71L253.06-19.71Q253.06-10.62 247.87-4.93L247.87-4.93L247.87-4.93Q242.30 1.28 232.19 1.28L232.19 1.28L232.19 1.28Q225.22 1.28 219.97-1.02L219.97-1.02L219.97-1.02Q218.11-1.86 216.77-3.07ZM233.02-22.40L229.63-3.65L229.63-3.65Q230.98-2.50 232.64-2.50L232.64-2.50L232.64-2.50Q234.30-2.50 235.26-3.14L235.26-3.14L235.26-3.14Q236.22-3.78 236.93-5.06L236.93-5.06L236.93-5.06Q238.85-8.51 240.38-19.07L240.38-19.07L240.38-19.07Q240.83-22.08 240.83-25.09L240.83-25.09L240.83-25.09Q240.83-28.10 240.16-29.06L240.16-29.06L240.16-29.06Q239.49-30.02 238.21-30.02L238.21-30.02L238.21-30.02Q234.30-30.02 233.02-22.40L233.02-22.40ZM257.92-6.40L257.92-6.40L257.92-6.40Q257.92-8.13 258.82-12.48L258.82-12.48L262.21-29.76L258.43-29.76L258.69-31.68L258.69-31.68Q266.37-33.98 273.79-39.62L273.79-39.62L276.86-39.62L275.33-32.64L280.32-32.64L279.74-29.76L274.82-29.76L271.55-12.48L271.55-12.48Q270.72-8.51 270.72-7.17L270.72-7.17L270.72-7.17Q270.72-4.10 273.41-3.46L273.41-3.46L273.41-3.46Q272.77-1.28 270.46 0L270.46 0L270.46 0Q268.16 1.28 264.90 1.28L264.90 1.28L264.90 1.28Q261.63 1.28 259.78-0.77L259.78-0.77L259.78-0.77Q257.92-2.82 257.92-6.40Z" fill="url(#editing-sticker-gradient)" stroke="#000" stroke-width="2.5"></path></g></g><style>text {
  font-size: 64px;
  font-family: Arial Black;
  dominant-baseline: central;
  text-anchor: middle;
}</style></svg>